<svg width="209" height="48" viewBox="0 0 209 48" fill="none" xmlns="http://www.w3.org/2000/svg">
<path d="M91.676 22C91.41 21.286 91.158 20.6 90.92 19.942C90.682 19.284 90.451 18.64 90.227 18.01H83.15C82.912 18.64 82.674 19.284 82.436 19.942C82.198 20.6 81.953 21.286 81.701 22H80.21C80.77 20.488 81.295 19.081 81.785 17.779C82.275 16.463 82.751 15.224 83.213 14.062C83.689 12.886 84.158 11.759 84.62 10.681C85.082 9.603 85.572 8.525 86.09 7.447H87.35C87.868 8.525 88.358 9.603 88.82 10.681C89.282 11.759 89.744 12.886 90.206 14.062C90.682 15.224 91.165 16.463 91.655 17.779C92.145 19.081 92.677 20.488 93.251 22H91.676ZM86.678 9.085C86.146 10.289 85.628 11.514 85.124 12.76C84.634 14.006 84.123 15.35 83.591 16.792H89.786C89.254 15.35 88.736 14.006 88.232 12.76C87.728 11.514 87.21 10.289 86.678 9.085ZM99.7951 10.933C100.243 10.933 100.663 10.968 101.055 11.038C101.461 11.108 101.741 11.178 101.895 11.248L101.622 12.424C101.51 12.368 101.279 12.312 100.929 12.256C100.593 12.186 100.145 12.151 99.5851 12.151C98.9971 12.151 98.5211 12.193 98.1571 12.277C97.8071 12.361 97.5761 12.431 97.4641 12.487V22H96.0991V11.647C96.4491 11.493 96.9321 11.339 97.5481 11.185C98.1641 11.017 98.9131 10.933 99.7951 10.933ZM111.535 12.256C111.213 12.62 110.793 13.124 110.275 13.768C109.757 14.412 109.204 15.133 108.616 15.931C108.028 16.715 107.447 17.541 106.873 18.409C106.299 19.263 105.795 20.075 105.361 20.845H111.724V22H103.786V21.013C104.15 20.327 104.598 19.571 105.13 18.745C105.676 17.919 106.236 17.107 106.81 16.309C107.384 15.497 107.944 14.741 108.49 14.041C109.036 13.327 109.498 12.746 109.876 12.298H104.101V11.143H111.535V12.256ZM116.471 11.143H120.797V12.298H116.471V18.073C116.471 18.689 116.52 19.193 116.618 19.585C116.73 19.963 116.884 20.257 117.08 20.467C117.276 20.677 117.514 20.817 117.794 20.887C118.074 20.957 118.382 20.992 118.718 20.992C119.292 20.992 119.754 20.929 120.104 20.803C120.454 20.663 120.727 20.537 120.923 20.425L121.259 21.559C121.063 21.685 120.72 21.832 120.23 22C119.74 22.154 119.208 22.231 118.634 22.231C117.962 22.231 117.395 22.147 116.933 21.979C116.485 21.797 116.121 21.531 115.841 21.181C115.575 20.817 115.386 20.369 115.274 19.837C115.162 19.305 115.106 18.675 115.106 17.947V7.951L116.471 7.699V11.143ZM125.516 20.047C125.642 20.145 125.796 20.25 125.978 20.362C126.174 20.474 126.398 20.579 126.65 20.677C126.902 20.775 127.175 20.859 127.469 20.929C127.763 20.985 128.071 21.013 128.393 21.013C129.065 21.013 129.625 20.901 130.073 20.677C130.535 20.439 130.906 20.124 131.186 19.732C131.466 19.326 131.669 18.857 131.795 18.325C131.921 17.779 131.984 17.205 131.984 16.603C131.984 15.175 131.627 14.083 130.913 13.327C130.199 12.557 129.254 12.172 128.078 12.172C127.406 12.172 126.86 12.207 126.44 12.277C126.034 12.333 125.726 12.396 125.516 12.466V20.047ZM125.516 25.885H124.151V11.521C124.557 11.381 125.075 11.248 125.705 11.122C126.335 10.996 127.133 10.933 128.099 10.933C128.897 10.933 129.618 11.066 130.262 11.332C130.92 11.584 131.48 11.955 131.942 12.445C132.418 12.935 132.782 13.53 133.034 14.23C133.3 14.93 133.433 15.721 133.433 16.603C133.433 17.429 133.321 18.192 133.097 18.892C132.887 19.578 132.572 20.173 132.152 20.677C131.732 21.167 131.214 21.552 130.598 21.832C129.996 22.112 129.303 22.252 128.519 22.252C127.805 22.252 127.182 22.154 126.65 21.958C126.132 21.748 125.754 21.552 125.516 21.37V25.885ZM140.931 10.933C141.379 10.933 141.799 10.968 142.191 11.038C142.597 11.108 142.877 11.178 143.031 11.248L142.758 12.424C142.646 12.368 142.415 12.312 142.065 12.256C141.729 12.186 141.281 12.151 140.721 12.151C140.133 12.151 139.657 12.193 139.293 12.277C138.943 12.361 138.712 12.431 138.6 12.487V22H137.235V11.647C137.585 11.493 138.068 11.339 138.684 11.185C139.3 11.017 140.049 10.933 140.931 10.933ZM149.352 21.013C149.884 21.013 150.346 20.999 150.738 20.971C151.144 20.929 151.487 20.88 151.767 20.824V17.002C151.613 16.932 151.368 16.862 151.032 16.792C150.696 16.708 150.234 16.666 149.646 16.666C149.31 16.666 148.96 16.694 148.596 16.75C148.232 16.792 147.896 16.897 147.588 17.065C147.28 17.219 147.028 17.436 146.832 17.716C146.636 17.996 146.538 18.367 146.538 18.829C146.538 19.235 146.601 19.578 146.727 19.858C146.867 20.138 147.056 20.362 147.294 20.53C147.546 20.698 147.84 20.824 148.176 20.908C148.526 20.978 148.918 21.013 149.352 21.013ZM149.226 10.891C149.94 10.891 150.542 10.996 151.032 11.206C151.536 11.402 151.942 11.682 152.25 12.046C152.558 12.396 152.782 12.816 152.922 13.306C153.062 13.796 153.132 14.328 153.132 14.902V21.748C152.992 21.79 152.789 21.839 152.523 21.895C152.257 21.937 151.949 21.986 151.599 22.042C151.249 22.098 150.857 22.14 150.423 22.168C150.003 22.21 149.569 22.231 149.121 22.231C148.547 22.231 148.015 22.168 147.525 22.042C147.049 21.916 146.629 21.72 146.265 21.454C145.915 21.174 145.635 20.824 145.425 20.404C145.229 19.97 145.131 19.445 145.131 18.829C145.131 18.241 145.243 17.737 145.467 17.317C145.691 16.897 146.006 16.554 146.412 16.288C146.818 16.008 147.301 15.805 147.861 15.679C148.421 15.553 149.03 15.49 149.688 15.49C149.884 15.49 150.087 15.504 150.297 15.532C150.521 15.546 150.731 15.574 150.927 15.616C151.137 15.644 151.312 15.679 151.452 15.721C151.606 15.749 151.711 15.777 151.767 15.805V15.133C151.767 14.755 151.739 14.391 151.683 14.041C151.627 13.677 151.501 13.355 151.305 13.075C151.123 12.781 150.857 12.55 150.507 12.382C150.171 12.2 149.723 12.109 149.163 12.109C148.365 12.109 147.77 12.165 147.378 12.277C146.986 12.389 146.699 12.48 146.517 12.55L146.328 11.353C146.566 11.241 146.93 11.136 147.42 11.038C147.924 10.94 148.526 10.891 149.226 10.891ZM160.856 17.086C160.548 17.492 160.24 17.919 159.932 18.367C159.624 18.815 159.323 19.256 159.029 19.69C158.749 20.124 158.49 20.544 158.252 20.95C158.014 21.342 157.811 21.692 157.643 22H156.236C156.81 20.922 157.412 19.921 158.042 18.997C158.672 18.059 159.316 17.142 159.974 16.246L156.446 11.143H158.042L160.856 15.301L163.712 11.143H165.203L161.738 16.162C162.032 16.554 162.347 16.981 162.683 17.443C163.019 17.905 163.355 18.388 163.691 18.892C164.027 19.382 164.349 19.893 164.657 20.425C164.979 20.957 165.273 21.482 165.539 22H164.069C163.901 21.692 163.698 21.342 163.46 20.95C163.222 20.544 162.956 20.124 162.662 19.69C162.382 19.256 162.081 18.815 161.759 18.367C161.451 17.919 161.15 17.492 160.856 17.086ZM170.138 22H168.773V11.143H170.138V22ZM170.453 7.867C170.453 8.189 170.355 8.448 170.159 8.644C169.963 8.826 169.725 8.917 169.445 8.917C169.165 8.917 168.927 8.826 168.731 8.644C168.535 8.448 168.437 8.189 168.437 7.867C168.437 7.545 168.535 7.293 168.731 7.111C168.927 6.915 169.165 6.817 169.445 6.817C169.725 6.817 169.963 6.915 170.159 7.111C170.355 7.293 170.453 7.545 170.453 7.867ZM176.822 21.034C177.606 21.034 178.25 20.908 178.754 20.656C179.272 20.39 179.531 19.949 179.531 19.333C179.531 19.039 179.482 18.787 179.384 18.577C179.3 18.367 179.153 18.178 178.943 18.01C178.733 17.842 178.453 17.681 178.103 17.527C177.767 17.373 177.347 17.191 176.843 16.981C176.437 16.813 176.052 16.645 175.688 16.477C175.324 16.295 175.002 16.092 174.722 15.868C174.442 15.63 174.218 15.35 174.05 15.028C173.882 14.706 173.798 14.314 173.798 13.852C173.798 12.97 174.127 12.256 174.785 11.71C175.457 11.164 176.374 10.891 177.536 10.891C178.278 10.891 178.887 10.954 179.363 11.08C179.853 11.206 180.196 11.318 180.392 11.416L180.077 12.634C179.909 12.55 179.622 12.438 179.216 12.298C178.824 12.158 178.243 12.088 177.473 12.088C177.165 12.088 176.871 12.123 176.591 12.193C176.325 12.249 176.087 12.347 175.877 12.487C175.667 12.613 175.499 12.781 175.373 12.991C175.247 13.187 175.184 13.432 175.184 13.726C175.184 14.02 175.24 14.272 175.352 14.482C175.464 14.692 175.625 14.881 175.835 15.049C176.059 15.203 176.325 15.35 176.633 15.49C176.955 15.63 177.319 15.784 177.725 15.952C178.145 16.12 178.544 16.295 178.922 16.477C179.314 16.645 179.657 16.855 179.951 17.107C180.245 17.345 180.483 17.639 180.665 17.989C180.847 18.325 180.938 18.752 180.938 19.27C180.938 20.25 180.567 20.992 179.825 21.496C179.097 22 178.096 22.252 176.822 22.252C175.87 22.252 175.142 22.168 174.638 22C174.134 21.846 173.798 21.727 173.63 21.643L173.987 20.404C174.029 20.432 174.12 20.481 174.26 20.551C174.4 20.607 174.589 20.677 174.827 20.761C175.065 20.831 175.345 20.894 175.667 20.95C176.003 21.006 176.388 21.034 176.822 21.034ZM85.271 42.026C86.223 42.026 86.916 41.865 87.35 41.543C87.784 41.221 88.001 40.766 88.001 40.178C88.001 39.828 87.924 39.527 87.77 39.275C87.63 39.023 87.42 38.799 87.14 38.603C86.874 38.393 86.545 38.204 86.153 38.036C85.761 37.854 85.313 37.679 84.809 37.511C84.305 37.329 83.815 37.133 83.339 36.923C82.877 36.699 82.464 36.426 82.1 36.104C81.75 35.782 81.463 35.397 81.239 34.949C81.029 34.501 80.924 33.962 80.924 33.332C80.924 32.016 81.379 30.987 82.289 30.245C83.199 29.489 84.438 29.111 86.006 29.111C86.916 29.111 87.721 29.216 88.421 29.426C89.135 29.622 89.695 29.839 90.101 30.077L89.282 32.219C88.806 31.953 88.281 31.75 87.707 31.61C87.147 31.47 86.566 31.4 85.964 31.4C85.25 31.4 84.69 31.547 84.284 31.841C83.892 32.135 83.696 32.548 83.696 33.08C83.696 33.402 83.759 33.682 83.885 33.92C84.025 34.144 84.214 34.347 84.452 34.529C84.704 34.711 84.991 34.879 85.313 35.033C85.649 35.187 86.013 35.334 86.405 35.474C87.091 35.726 87.7 35.985 88.232 36.251C88.778 36.503 89.233 36.811 89.597 37.175C89.975 37.525 90.262 37.945 90.458 38.435C90.654 38.911 90.752 39.492 90.752 40.178C90.752 41.494 90.283 42.516 89.345 43.244C88.421 43.958 87.063 44.315 85.271 44.315C84.669 44.315 84.116 44.273 83.612 44.189C83.122 44.119 82.681 44.028 82.289 43.916C81.911 43.804 81.582 43.692 81.302 43.58C81.022 43.454 80.798 43.342 80.63 43.244L81.407 41.081C81.785 41.291 82.296 41.501 82.94 41.711C83.584 41.921 84.361 42.026 85.271 42.026ZM92.3488 38.519C92.3488 37.707 92.4748 36.951 92.7268 36.251C92.9788 35.537 93.3358 34.921 93.7978 34.403C94.2738 33.885 94.8478 33.479 95.5198 33.185C96.1918 32.891 96.9478 32.744 97.7878 32.744C98.8238 32.744 99.8038 32.933 100.728 33.311L100.182 35.39C99.8878 35.264 99.5518 35.159 99.1738 35.075C98.8098 34.991 98.4178 34.949 97.9978 34.949C97.0038 34.949 96.2478 35.264 95.7298 35.894C95.2118 36.51 94.9528 37.385 94.9528 38.519C94.9528 39.611 95.1978 40.479 95.6878 41.123C96.1778 41.753 97.0038 42.068 98.1658 42.068C98.5998 42.068 99.0268 42.026 99.4468 41.942C99.8668 41.858 100.231 41.753 100.539 41.627L100.896 43.727C100.616 43.867 100.189 43.993 99.6148 44.105C99.0548 44.217 98.4738 44.273 97.8718 44.273C96.9338 44.273 96.1148 44.133 95.4148 43.853C94.7288 43.559 94.1548 43.16 93.6928 42.656C93.2448 42.138 92.9088 41.529 92.6848 40.829C92.4608 40.115 92.3488 39.345 92.3488 38.519ZM102.863 44V28.124L105.404 27.704V33.143C105.684 33.045 106.006 32.961 106.37 32.891C106.748 32.821 107.119 32.786 107.483 32.786C108.365 32.786 109.093 32.912 109.667 33.164C110.255 33.402 110.724 33.745 111.074 34.193C111.424 34.627 111.669 35.152 111.809 35.768C111.963 36.384 112.04 37.07 112.04 37.826V44H109.499V38.225C109.499 37.637 109.457 37.14 109.373 36.734C109.303 36.314 109.177 35.978 108.995 35.726C108.827 35.46 108.596 35.271 108.302 35.159C108.008 35.033 107.644 34.97 107.21 34.97C106.874 34.97 106.531 35.005 106.181 35.075C105.831 35.145 105.572 35.208 105.404 35.264V44H102.863ZM124.095 43.664C123.605 43.79 122.968 43.916 122.184 44.042C121.4 44.182 120.539 44.252 119.601 44.252C118.719 44.252 117.977 44.126 117.375 43.874C116.787 43.622 116.311 43.272 115.947 42.824C115.597 42.376 115.345 41.844 115.191 41.228C115.037 40.598 114.96 39.912 114.96 39.17V33.017H117.501V38.771C117.501 39.947 117.669 40.787 118.005 41.291C118.355 41.795 118.957 42.047 119.811 42.047C120.119 42.047 120.441 42.033 120.777 42.005C121.127 41.977 121.386 41.942 121.554 41.9V33.017H124.095V43.664ZM131.151 44.21C130.395 44.196 129.765 44.112 129.261 43.958C128.771 43.804 128.379 43.587 128.085 43.307C127.791 43.013 127.581 42.656 127.455 42.236C127.343 41.802 127.287 41.312 127.287 40.766V28.124L129.828 27.704V40.283C129.828 40.591 129.849 40.85 129.891 41.06C129.947 41.27 130.038 41.452 130.164 41.606C130.29 41.746 130.458 41.858 130.668 41.942C130.892 42.012 131.172 42.068 131.508 42.11L131.151 44.21ZM141.249 34.802C140.969 35.096 140.598 35.509 140.136 36.041C139.688 36.573 139.205 37.168 138.687 37.826C138.169 38.47 137.644 39.149 137.112 39.863C136.594 40.563 136.125 41.235 135.705 41.879H141.375V44H132.639V42.425C132.947 41.865 133.332 41.256 133.794 40.598C134.256 39.94 134.732 39.282 135.222 38.624C135.712 37.952 136.195 37.315 136.671 36.713C137.161 36.111 137.595 35.586 137.973 35.138H132.912V33.017H141.249V34.802ZM142.778 38.561C142.778 37.595 142.918 36.748 143.198 36.02C143.492 35.292 143.877 34.69 144.353 34.214C144.829 33.724 145.375 33.36 145.991 33.122C146.607 32.87 147.237 32.744 147.881 32.744C149.393 32.744 150.569 33.213 151.409 34.151C152.263 35.089 152.69 36.489 152.69 38.351C152.69 38.491 152.683 38.652 152.669 38.834C152.669 39.002 152.662 39.156 152.648 39.296H145.403C145.473 40.178 145.781 40.864 146.327 41.354C146.887 41.83 147.692 42.068 148.742 42.068C149.358 42.068 149.918 42.012 150.422 41.9C150.94 41.788 151.346 41.669 151.64 41.543L151.976 43.622C151.836 43.692 151.64 43.769 151.388 43.853C151.15 43.923 150.87 43.986 150.548 44.042C150.24 44.112 149.904 44.168 149.54 44.21C149.176 44.252 148.805 44.273 148.427 44.273C147.461 44.273 146.621 44.133 145.907 43.853C145.193 43.559 144.605 43.16 144.143 42.656C143.681 42.138 143.338 41.536 143.114 40.85C142.89 40.15 142.778 39.387 142.778 38.561ZM150.149 37.427C150.149 37.077 150.1 36.748 150.002 36.44C149.904 36.118 149.757 35.845 149.561 35.621C149.379 35.383 149.148 35.201 148.868 35.075C148.602 34.935 148.28 34.865 147.902 34.865C147.51 34.865 147.167 34.942 146.873 35.096C146.579 35.236 146.327 35.425 146.117 35.663C145.921 35.901 145.767 36.174 145.655 36.482C145.543 36.79 145.466 37.105 145.424 37.427H150.149ZM155.384 33.374C155.874 33.234 156.511 33.101 157.295 32.975C158.079 32.849 158.947 32.786 159.899 32.786C160.795 32.786 161.544 32.912 162.146 33.164C162.748 33.402 163.224 33.745 163.574 34.193C163.938 34.627 164.19 35.159 164.33 35.789C164.484 36.405 164.561 37.084 164.561 37.826V44H162.02V38.225C162.02 37.637 161.978 37.14 161.894 36.734C161.824 36.314 161.698 35.978 161.516 35.726C161.348 35.46 161.11 35.271 160.802 35.159C160.508 35.033 160.144 34.97 159.71 34.97C159.388 34.97 159.052 34.991 158.702 35.033C158.352 35.075 158.093 35.11 157.925 35.138V44H155.384V33.374ZM169.663 38.477C169.663 39.597 169.929 40.479 170.461 41.123C170.993 41.753 171.728 42.068 172.666 42.068C173.072 42.068 173.415 42.054 173.695 42.026C173.989 41.984 174.227 41.942 174.409 41.9V35.6C174.185 35.446 173.884 35.306 173.506 35.18C173.142 35.04 172.75 34.97 172.33 34.97C171.406 34.97 170.727 35.285 170.293 35.915C169.873 36.545 169.663 37.399 169.663 38.477ZM176.95 43.664C176.446 43.818 175.809 43.958 175.039 44.084C174.283 44.21 173.485 44.273 172.645 44.273C171.777 44.273 171 44.14 170.314 43.874C169.628 43.608 169.04 43.23 168.55 42.74C168.074 42.236 167.703 41.634 167.437 40.934C167.185 40.22 167.059 39.422 167.059 38.54C167.059 37.672 167.164 36.888 167.374 36.188C167.598 35.474 167.92 34.865 168.34 34.361C168.76 33.857 169.271 33.472 169.873 33.206C170.475 32.926 171.168 32.786 171.952 32.786C172.484 32.786 172.953 32.849 173.359 32.975C173.765 33.101 174.115 33.241 174.409 33.395V28.124L176.95 27.704V43.664ZM190.111 38.498C190.111 39.366 189.985 40.157 189.733 40.871C189.481 41.585 189.124 42.194 188.662 42.698C188.2 43.202 187.64 43.594 186.982 43.874C186.338 44.154 185.624 44.294 184.84 44.294C184.056 44.294 183.342 44.154 182.698 43.874C182.054 43.594 181.501 43.202 181.039 42.698C180.577 42.194 180.213 41.585 179.947 40.871C179.695 40.157 179.569 39.366 179.569 38.498C179.569 37.63 179.695 36.846 179.947 36.146C180.213 35.432 180.577 34.823 181.039 34.319C181.515 33.815 182.075 33.43 182.719 33.164C183.363 32.884 184.07 32.744 184.84 32.744C185.61 32.744 186.317 32.884 186.961 33.164C187.619 33.43 188.179 33.815 188.641 34.319C189.103 34.823 189.46 35.432 189.712 36.146C189.978 36.846 190.111 37.63 190.111 38.498ZM187.507 38.498C187.507 37.406 187.269 36.545 186.793 35.915C186.331 35.271 185.68 34.949 184.84 34.949C184 34.949 183.342 35.271 182.866 35.915C182.404 36.545 182.173 37.406 182.173 38.498C182.173 39.604 182.404 40.479 182.866 41.123C183.342 41.767 184 42.089 184.84 42.089C185.68 42.089 186.331 41.767 186.793 41.123C187.269 40.479 187.507 39.604 187.507 38.498ZM198.986 35.306C198.776 35.236 198.482 35.166 198.104 35.096C197.74 35.012 197.313 34.97 196.823 34.97C196.543 34.97 196.242 34.998 195.92 35.054C195.612 35.11 195.395 35.159 195.269 35.201V44H192.728V33.542C193.218 33.36 193.827 33.192 194.555 33.038C195.297 32.87 196.116 32.786 197.012 32.786C197.18 32.786 197.376 32.8 197.6 32.828C197.824 32.842 198.048 32.87 198.272 32.912C198.496 32.94 198.713 32.982 198.923 33.038C199.133 33.08 199.301 33.122 199.427 33.164L198.986 35.306ZM205.671 27.704C206.259 27.704 206.777 27.76 207.225 27.872C207.673 27.97 208.009 28.061 208.233 28.145L207.75 30.245C207.512 30.133 207.232 30.042 206.91 29.972C206.602 29.902 206.266 29.867 205.902 29.867C205.496 29.867 205.153 29.93 204.873 30.056C204.593 30.168 204.369 30.329 204.201 30.539C204.033 30.749 203.914 31.008 203.844 31.316C203.774 31.61 203.739 31.932 203.739 32.282V33.017H207.729V35.138H203.739V44H201.198V32.24C201.198 30.826 201.569 29.72 202.311 28.922C203.053 28.11 204.173 27.704 205.671 27.704Z" fill="#0A1468"/>
<path fill-rule="evenodd" clip-rule="evenodd" d="M16.4531 8.00805C16.4531 8.00805 18.2998 3.11458 13.7544 5.81046C9.20912 8.50635 14.3205 14.5366 16.4531 8.00805Z" fill="#0A1468"/>
<path fill-rule="evenodd" clip-rule="evenodd" d="M0.591814 23.6679C-2.16569 33.7321 5.60796 22.383 5.60796 22.383C8.37386 19.8494 6.83814 25.0032 6.83814 25.0032C0.821594 48.6977 1.32319 52.1219 6.3057 40.848C11.2882 29.5749 11.5909 36.1617 12.9332 42.5781C14.2755 48.9946 14.6089 42.4773 14.6089 42.4773C14.6706 21.1257 17.3468 22.9317 17.3468 22.9317C19.9137 27.6908 24.2208 35.0928 19.8353 21.5264C15.4468 7.95988 3.34962 13.6008 0.591965 23.668L0.591814 23.6679Z" fill="#0A1468"/>
<path fill-rule="evenodd" clip-rule="evenodd" d="M23.2291 25.5207C22.6406 27.1024 23.5486 27.6484 24.9329 25.308C26.3173 22.9676 37.5296 15.5463 30.8962 23.8187C24.2632 32.0911 24.8264 36.7996 24.8264 36.7996C26.6367 37.2924 28.4891 37.6787 30.3161 37.981C30.4422 39.7503 30.8514 42.9921 32.1769 45.4193C34.0937 48.9298 33.1353 44.3555 33.4547 41.0577C33.7742 37.7599 34.472 39.1429 36.1477 42.3342C37.8235 45.5256 39.8468 46.5642 40.8052 46.6846C41.7636 46.805 40.1663 45.8476 39.2078 42.9725C38.6446 41.2844 38.3055 39.9687 38.0981 38.8433C43.4057 39.1708 47.3037 38.9301 47.3037 38.9301C47.3037 38.9301 43.9662 36.6065 41.5506 29.3726C39.1995 22.3235 40.2727 23.5021 46.236 27.4382C52.1993 31.3743 48.4722 26.6935 48.4722 26.6935C31.0052 0.302958 23.2287 25.5205 23.2287 25.5205L23.2291 25.5207Z" fill="#F1437F"/>
<path fill-rule="evenodd" clip-rule="evenodd" d="M36.7223 10.6623C39.4209 13.0026 40.6988 9.52854 39.9169 8.71103C39.1351 7.8964 40.9818 7.18532 39.348 6.75977C39.348 6.75977 34.0236 8.31909 36.7222 10.6622L36.7223 10.6623Z" fill="#F1437F"/>
<path fill-rule="evenodd" clip-rule="evenodd" d="M59.8833 28.7937C59.8833 28.7937 58.8773 25.1264 57.2716 28.7881C55.6602 32.4498 61.4246 33.5304 59.8833 28.7937Z" fill="#FFC800"/>
<path fill-rule="evenodd" clip-rule="evenodd" d="M61.5419 34.7013C56.7836 33.7159 52.9612 30.2166 52.9612 30.2166C50.5372 28.2374 50.5484 30.029 52.5409 32.543C54.5333 35.0569 52.3307 40.8212 52.1738 43.8082C52.0168 46.7953 53.1349 45.7399 53.7991 43.8502C54.4324 42.053 54.3287 40.4909 57.5261 45.1548C60.7236 49.8187 59.6195 45.6951 59.6195 45.6951C58.0334 37.5208 60.0398 36.7368 60.7741 36.5798C61.5082 36.4202 70.4423 36.5434 61.5419 34.7013L61.5419 34.7013Z" fill="#FFC800"/>
</svg>
