<svg width="228" height="147" fill="none" xmlns="http://www.w3.org/2000/svg"><path fill-rule="evenodd" clip-rule="evenodd" d="M57.1112 10.7205s6.4102-16.93916-9.3673-7.60716c-15.7775 9.33196 1.9649 30.20616 9.3673 7.60716zM2.05428 64.9283c-9.57174 34.8378 17.41182-4.4481 17.41182-4.4481 9.6009-8.7701 4.2701 9.0703 4.2701 9.0703C2.85188 151.571 4.59301 163.424 21.8881 124.398c17.295-39.0225 18.3456-16.222 23.0049 5.989 4.6594 22.211 5.8168-.349 5.8168-.349.214-73.9099 9.5035-67.6583 9.5035-67.6583 8.9101 16.474 23.8609 42.0963 8.638-4.8646C53.6184 10.5537 11.627 30.08 2.0548 64.9285l-.00052-.0002z" fill="#0A1468"/><path fill-rule="evenodd" clip-rule="evenodd" d="M80.6316 71.3423c-2.0428 5.4752 1.1089 7.365 5.9141-.7364 4.8053-8.1013 43.7253-33.7909 20.6993-5.1554-23.0241 28.6358-21.0688 44.9345-21.0688 44.9345 6.2837 1.706 12.7136 3.043 19.0558 4.089.437 6.125 1.858 17.347 6.459 25.749 6.653 12.152 3.326-3.683 4.435-15.098 1.109-11.416 3.531-6.629 9.348 4.419 5.817 11.047 12.84 14.642 16.167 15.059 3.326.416-2.218-2.898-5.545-12.85-1.955-5.844-3.132-10.398-3.852-14.294 18.423 1.134 31.954.301 31.954.301s-11.585-8.043-19.97-33.0841c-8.161-24.4008-4.435-20.3212 16.264-6.6961 20.7 13.625 7.762-2.5778 7.762-2.5778-60.63-91.3528-87.6239-4.0604-87.6239-4.0604l.0015.0007zM127.469 19.9079c9.367 8.1013 13.803-3.9246 11.089-6.7545-2.714-2.8199 3.696-5.28132-1.975-6.75441 0 0-18.482 5.39771-9.114 13.50871v.0002z" fill="#F1437F"/><path fill-rule="evenodd" clip-rule="evenodd" d="M207.864 82.672s-3.492-12.6947-9.065-.0194c-5.594 12.6754 14.416 16.4159 9.065.0194z" fill="#FFC800"/><path fill-rule="evenodd" clip-rule="evenodd" d="M213.621 103.121c-16.516-3.4112-29.785-15.5244-29.785-15.5244-8.414-6.8512-8.375-.6493-1.459 8.0529 6.916 8.7025-.729 28.6555-1.274 38.9955s3.336 6.687 5.642.145c2.198-6.221 1.838-11.628 12.937 4.516 11.099 16.145 7.266 1.871 7.266 1.871-5.505-28.296 1.459-31.01 4.008-31.554 2.548-.552 33.56-.126 2.665-6.502z" fill="#FFC800"/></svg>